<svg width="18" height="19" viewBox="0 0 18 19" fill="none" xmlns="http://www.w3.org/2000/svg">
<g clip-path="url(#clip0_534_32456)">
<g clip-path="url(#clip1_534_32456)">
<g clip-path="url(#clip2_534_32456)">
<path d="M9 2C4.8525 2 1.5 5.3525 1.5 9.5C1.5 13.6475 4.8525 17 9 17C13.1475 17 16.5 13.6475 16.5 9.5C16.5 5.3525 13.1475 2 9 2ZM12.225 12.725C11.9325 13.0175 11.46 13.0175 11.1675 12.725L9 10.5575L6.8325 12.725C6.54 13.0175 6.0675 13.0175 5.775 12.725C5.4825 12.4325 5.4825 11.96 5.775 11.6675L7.9425 9.5L5.775 7.3325C5.4825 7.04 5.4825 6.5675 5.775 6.275C6.0675 5.9825 6.54 5.9825 6.8325 6.275L9 8.4425L11.1675 6.275C11.46 5.9825 11.9325 5.9825 12.225 6.275C12.5175 6.5675 12.5175 7.04 12.225 7.3325L10.0575 9.5L12.225 11.6675C12.51 11.9525 12.51 12.4325 12.225 12.725Z" fill="#EE5D50"/>
</g>
</g>
</g>
<defs>
<clipPath id="clip0_534_32456">
<rect width="18" height="18" fill="white" transform="translate(0 0.5)"/>
</clipPath>
<clipPath id="clip1_534_32456">
<rect width="18" height="18" fill="white" transform="translate(0 1)"/>
</clipPath>
<clipPath id="clip2_534_32456">
<rect width="18" height="18" fill="white" transform="translate(0 0.5)"/>
</clipPath>
</defs>
</svg>
