<svg width="15" height="15" viewBox="0 0 15 15" fill="none" xmlns="http://www.w3.org/2000/svg">
<path d="M7.5 0C3.36417 0 0 3.365 0 7.5C0 11.635 3.36417 15 7.5 15C11.6358 15 15 11.635 15 7.5C15 3.365 11.6358 0 7.5 0ZM7.5 13.3333C4.28417 13.3333 1.66667 10.7167 1.66667 7.5C1.66667 4.28333 4.28417 1.66667 7.5 1.66667C10.7158 1.66667 13.3333 4.28333 13.3333 7.5C13.3333 10.7167 10.7158 13.3333 7.5 13.3333ZM8.08917 7.5L10.2942 5.295C10.3719 5.21665 10.4155 5.11077 10.4155 5.00042C10.4155 4.89007 10.3719 4.78418 10.2942 4.70583C10.2158 4.62813 10.1099 4.58452 9.99958 4.58452C9.88923 4.58452 9.78335 4.62813 9.705 4.70583L7.5 6.91083L5.295 4.705C5.21642 4.6291 5.11116 4.5871 5.00192 4.58805C4.89267 4.589 4.78816 4.63282 4.71091 4.71008C4.63366 4.78733 4.58984 4.89183 4.58889 5.00108C4.58794 5.11033 4.62993 5.21558 4.70583 5.29417L6.91083 7.5L4.70583 9.705C4.62759 9.78313 4.5836 9.88914 4.58352 9.99971C4.58344 10.1103 4.62729 10.2163 4.70542 10.2946C4.78354 10.3728 4.88955 10.4168 5.00012 10.4169C5.11069 10.417 5.21676 10.3731 5.295 10.295L7.5 8.08917L9.705 10.2942C9.74338 10.334 9.78931 10.3658 9.84012 10.3877C9.89092 10.4096 9.94558 10.4212 10.0009 10.4218C10.0562 10.4223 10.1111 10.4118 10.1623 10.391C10.2136 10.3701 10.2601 10.3392 10.2993 10.3002C10.3385 10.2611 10.3695 10.2146 10.3905 10.1634C10.4115 10.1123 10.4222 10.0574 10.4218 10.0021C10.4214 9.94677 10.4099 9.89208 10.3882 9.84121C10.3664 9.79035 10.3347 9.74433 10.295 9.70583L8.08917 7.5Z" fill="black"/>
</svg>
