<svg width="15" height="14" viewBox="0 0 15 14" fill="none" xmlns="http://www.w3.org/2000/svg">
<path d="M14.9445 12.9111L11.931 5.61177C11.8754 5.47697 11.781 5.36173 11.6598 5.28064C11.5386 5.19955 11.396 5.15626 11.2502 5.15626C11.1043 5.15626 10.9618 5.19955 10.8406 5.28064C10.7194 5.36173 10.6249 5.47697 10.5693 5.61177L7.5558 12.9111C7.51833 13.0006 7.49892 13.0966 7.49867 13.1937C7.49843 13.2907 7.51736 13.3869 7.55438 13.4766C7.5914 13.5663 7.64578 13.6478 7.71439 13.7164C7.78301 13.785 7.86451 13.8394 7.9542 13.8764C8.0439 13.9135 8.14003 13.9324 8.23707 13.9322C8.33411 13.9319 8.43015 13.9125 8.51967 13.8751C8.60919 13.8376 8.69042 13.7828 8.75871 13.7139C8.82699 13.6449 8.88097 13.5632 8.91756 13.4733L9.53131 11.987H12.969L13.5828 13.4733C13.6384 13.6081 13.7328 13.7234 13.8541 13.8046C13.9753 13.8857 14.1179 13.929 14.2638 13.929C14.3849 13.9289 14.504 13.899 14.6108 13.8419C14.7175 13.7848 14.8085 13.7023 14.8758 13.6017C14.9431 13.5011 14.9845 13.3854 14.9964 13.265C15.0083 13.1445 14.9907 13.023 14.9445 12.9111ZM10.1397 10.5137L11.2503 7.82333L12.361 10.5137H10.1397ZM7.89666 9.87484C8.0111 9.71677 8.05814 9.51973 8.02744 9.32701C7.99674 9.13428 7.89082 8.96161 7.73293 8.84691C7.72623 8.84189 7.23068 8.47425 6.51113 7.68404C7.83874 5.88667 8.59077 3.84185 8.89747 2.87955H9.97797C10.1733 2.87955 10.3607 2.80194 10.4988 2.6638C10.637 2.52565 10.7146 2.33829 10.7146 2.14292C10.7146 1.94755 10.637 1.76019 10.4988 1.62204C10.3607 1.4839 10.1733 1.40629 9.97797 1.40629H6.09393V0.736629C6.09393 0.541263 6.01632 0.353898 5.87818 0.215754C5.74003 0.0776088 5.55267 0 5.3573 0C5.16194 0 4.97457 0.0776088 4.83643 0.215754C4.69828 0.353898 4.62067 0.541263 4.62067 0.736629V1.40629H0.736629C0.541263 1.40629 0.353898 1.4839 0.215754 1.62204C0.0776088 1.76019 0 1.94755 0 2.14292C0 2.33829 0.0776088 2.52565 0.215754 2.6638C0.353898 2.80194 0.541263 2.87955 0.736629 2.87955H7.34118C7.02242 3.78192 6.43546 5.20663 5.54012 6.50778C4.48841 5.1122 4.09767 4.20916 4.09465 4.2018C4.01766 4.02386 3.87362 3.88346 3.69378 3.81103C3.51394 3.73861 3.31279 3.74 3.13397 3.81491C2.95515 3.88983 2.81308 4.03222 2.73856 4.2112C2.66404 4.39018 2.66309 4.59133 2.73591 4.77101C2.75533 4.81722 3.22309 5.91714 4.50583 7.58125C4.53663 7.6211 4.5671 7.65994 4.59757 7.69878C3.28369 9.18375 1.99459 10.1049 1.45518 10.4022C1.28365 10.4958 1.15632 10.6536 1.10119 10.8411C1.04606 11.0285 1.06764 11.2302 1.1612 11.4017C1.25475 11.5732 1.41261 11.7005 1.60005 11.7557C1.78748 11.8108 1.98914 11.7892 2.16067 11.6957C2.23299 11.6561 3.78795 10.7953 5.56356 8.82984C6.3176 9.63611 6.83592 10.0165 6.86706 10.0386C6.94541 10.0955 7.03421 10.1364 7.12838 10.1589C7.22255 10.1815 7.32025 10.1853 7.41588 10.17C7.51151 10.1548 7.60319 10.1208 7.68569 10.0701C7.76819 10.0194 7.83988 9.95329 7.89666 9.87484Z" fill="black"/>
</svg>
