<svg width="19" height="14" viewBox="0 0 19 14" fill="none" xmlns="http://www.w3.org/2000/svg">
<path d="M10.808 7.192C10.244 7.192 9.76967 6.99967 9.385 6.615C9.00033 6.23033 8.808 5.756 8.808 5.192C8.808 4.628 9.00033 4.15367 9.385 3.769C9.76967 3.38433 10.244 3.192 10.808 3.192C11.372 3.192 11.8463 3.38433 12.231 3.769C12.6157 4.15367 12.808 4.628 12.808 5.192C12.808 5.756 12.6157 6.23033 12.231 6.615C11.8463 6.99967 11.372 7.192 10.808 7.192ZM3 10.384V0H18.616V10.384H3ZM5.616 9.384H16C16 8.93733 16.1583 8.55633 16.475 8.241C16.791 7.92633 17.171 7.769 17.615 7.769V2.615C17.1683 2.615 16.7873 2.457 16.472 2.141C16.1573 1.82433 16 1.444 16 1H5.616C5.616 1.44667 5.45767 1.82767 5.141 2.143C4.825 2.45767 4.445 2.615 4.001 2.615V7.769C4.44767 7.769 4.82867 7.92733 5.144 8.244C5.45867 8.56 5.616 8.94 5.616 9.384ZM0 13.384V2.961H1V12.384H15.654V13.384H0Z" fill="black"/>
</svg>
