<svg width="17" height="13" viewBox="0 0 17 13" fill="none" xmlns="http://www.w3.org/2000/svg">
<path d="M7 1H1.75C1.55109 1 1.36032 1.07902 1.21967 1.21967C1.07902 1.36032 1 1.55109 1 1.75V11.5C1 11.6989 1.07902 11.8897 1.21967 12.0303C1.36032 12.171 1.55109 12.25 1.75 12.25H15.25C15.4489 12.25 15.6397 12.171 15.7803 12.0303C15.921 11.8897 16 11.6989 16 11.5V10.5625" stroke="black" stroke-width="1.5" stroke-linecap="round" stroke-linejoin="round"/>
<path d="M3.25 5.87549H6.25M3.25 8.87549H12.25" stroke="black" stroke-width="1.5" stroke-linecap="round"/>
<path d="M12.25 5.5C13.4926 5.5 14.5 4.49264 14.5 3.25C14.5 2.00736 13.4926 1 12.25 1C11.0074 1 10 2.00736 10 3.25C10 4.49264 11.0074 5.5 12.25 5.5Z" stroke="black" stroke-width="1.5" stroke-linecap="round" stroke-linejoin="round"/>
<path d="M15.9999 7.90664C15.2676 6.47526 13.7499 5.49951 12.25 5.49951C10.75 5.49951 10.0026 5.92439 9.2312 6.62451" stroke="black" stroke-width="1.5" stroke-linecap="round" stroke-linejoin="round"/>
</svg>
