<svg width="19" height="21" viewBox="0 0 19 21" fill="none" xmlns="http://www.w3.org/2000/svg">
<path d="M7.5 15.25L8.67 12.685L11.25 11.5L8.67 10.33L7.5 7.75L6.3225 10.33L3.75 11.5L6.3225 12.685L7.5 15.25ZM4.6275 4.57C5.53881 4.19496 6.51454 4.00134 7.5 4C8.4825 4 9.4575 4.195 10.3725 4.57C11.28 4.945 12.105 5.5 12.8025 6.1975C13.5 6.895 14.055 7.72 14.43 8.6275C14.805 9.5425 15 10.5175 15 11.5C15 13.4875 14.2125 15.4 12.8025 16.8025C12.1069 17.4999 11.2804 18.053 10.3704 18.4301C9.46046 18.8072 8.48499 19.0009 7.5 19C6.51454 18.9987 5.53881 18.805 4.6275 18.43C3.71832 18.0527 2.89254 17.4996 2.1975 16.8025C1.50015 16.1069 0.947048 15.2803 0.569941 14.3704C0.192835 13.4605 -0.000850531 12.485 2.80748e-06 11.5C2.80748e-06 9.5125 0.787503 7.6 2.1975 6.1975C2.895 5.5 3.72 4.945 4.6275 4.57ZM3.255 15.745C4.38 16.87 5.91 17.5 7.5 17.5C9.09 17.5 10.62 16.87 11.745 15.745C12.87 14.62 13.5 13.09 13.5 11.5C13.5 9.91 12.87 8.38 11.745 7.255C10.6184 6.13063 9.09165 5.49941 7.5 5.5C5.91 5.5 4.38 6.13 3.255 7.255C2.13063 8.38155 1.49941 9.90835 1.5 11.5C1.5 13.09 2.13 14.62 3.255 15.745Z" fill="black"/>
</svg>
