<svg width="13" height="17" viewBox="0 0 13 17" fill="none" xmlns="http://www.w3.org/2000/svg">
<path d="M6.5 2.38097C5.15918 2.38097 3.87328 2.91361 2.92518 3.86171C1.97708 4.80981 1.44444 6.09571 1.44444 7.43652C1.44444 9.50352 2.73144 11.4976 4.14411 13.0424C4.86682 13.829 5.65494 14.5528 6.5 15.2062C7.34504 14.5533 8.13316 13.83 8.85589 13.0439C10.2686 11.4976 11.5556 9.50425 11.5556 7.43652C11.5556 6.09571 11.0229 4.80981 10.0748 3.86171C9.12672 2.91361 7.84082 2.38097 6.5 2.38097ZM6.5 16.98L6.0905 16.6983L6.08833 16.6969L6.084 16.6932L6.06956 16.6831L6.01539 16.6449C5.71634 16.4275 5.42395 16.2011 5.13861 15.966C4.40727 15.3652 3.71876 14.7141 3.07811 14.0174C1.60189 12.4025 0 10.0632 0 7.43652C2.56882e-08 5.71262 0.684819 4.05932 1.90381 2.84033C3.12279 1.62134 4.77609 0.936523 6.5 0.936523C8.22391 0.936523 9.87721 1.62134 11.0962 2.84033C12.3152 4.05932 13 5.71262 13 7.43652C13 10.0632 11.3981 12.4032 9.92189 14.0174C9.08546 14.9272 8.16781 15.7588 7.18033 16.5019C7.09805 16.5633 7.01499 16.6238 6.93117 16.6831L6.916 16.6932L6.91167 16.6969L6.91022 16.6976L6.5 16.98ZM6.5 5.99208C6.11691 5.99208 5.74951 6.14426 5.47862 6.41515C5.20774 6.68603 5.05556 7.05343 5.05556 7.43652C5.05556 7.81961 5.20774 8.18701 5.47862 8.4579C5.74951 8.72879 6.11691 8.88097 6.5 8.88097C6.88309 8.88097 7.25049 8.72879 7.52138 8.4579C7.79226 8.18701 7.94444 7.81961 7.94444 7.43652C7.94444 7.05343 7.79226 6.68603 7.52138 6.41515C7.25049 6.14426 6.88309 5.99208 6.5 5.99208ZM3.61111 7.43652C3.61111 6.67034 3.91548 5.93554 4.45725 5.39377C4.99902 4.852 5.73382 4.54763 6.5 4.54763C7.26618 4.54763 8.00098 4.852 8.54275 5.39377C9.08453 5.93554 9.38889 6.67034 9.38889 7.43652C9.38889 8.2027 9.08453 8.93751 8.54275 9.47928C8.00098 10.021 7.26618 10.3254 6.5 10.3254C5.73382 10.3254 4.99902 10.021 4.45725 9.47928C3.91548 8.93751 3.61111 8.2027 3.61111 7.43652Z" fill="black"/>
</svg>
