<svg width="16" height="17" viewBox="0 0 16 17" fill="none" xmlns="http://www.w3.org/2000/svg">
<path d="M12.4286 8.14286V3.67786C12.4286 3.62147 12.4175 3.56564 12.396 3.51355C12.3744 3.46145 12.3428 3.41413 12.3029 3.37429L10.0543 1.12571C9.97399 1.04532 9.86506 1.0001 9.75143 1H1.42857C1.31491 1 1.2059 1.04515 1.12553 1.12553C1.04515 1.2059 1 1.31491 1 1.42857V14.8571C1 14.9708 1.04515 15.0798 1.12553 15.1602C1.2059 15.2406 1.31491 15.2857 1.42857 15.2857H7.42857M3.85714 6.71429H9.57143M3.85714 3.85714H6.71429M3.85714 9.57143H6" stroke="black" stroke-width="1.2" stroke-linecap="round" stroke-linejoin="round"/>
<path d="M9.57141 1V3.42857C9.57141 3.54224 9.61656 3.65124 9.69694 3.73162C9.77731 3.81199 9.88632 3.85714 9.99998 3.85714H12.4286M12.4228 10.375L14.2486 10.8386C14.4386 10.8871 14.5721 11.06 14.5664 11.2557C14.4436 15.3686 12.0714 16 12.0714 16C12.0714 16 9.69927 15.3686 9.57641 11.2557C9.5742 11.1604 9.60447 11.0672 9.66223 10.9914C9.71999 10.9156 9.80182 10.8617 9.89427 10.8386L11.72 10.375C11.9507 10.3164 12.1921 10.3164 12.4228 10.375Z" stroke="black" stroke-width="1.2" stroke-linecap="round" stroke-linejoin="round"/>
</svg>
