<svg width="22" height="22" viewBox="0 0 22 22" fill="none" xmlns="http://www.w3.org/2000/svg">
<path d="M15.4894 6.625C15.4894 9.1617 13.9176 11.25 10.8288 11.25C7.74009 11.25 6.16827 9.1617 6.16827 6.625C6.16827 4.0883 8.0325 2 10.8289 2C13.9176 2 15.4894 4.0883 15.4894 6.625Z" fill="#1C0248"/>
<path d="M10.8289 13.5625C3.78829 13.5625 1.50769 19.2241 1.50769 20.5H20.15C20.15 19.2241 17.8694 13.5625 10.8289 13.5625Z" fill="#1C0248"/>
<path d="M15.4894 6.625C15.4894 9.1617 13.9176 11.25 10.8288 11.25C7.74009 11.25 6.16827 9.1617 6.16827 6.625C6.16827 4.0883 8.0325 2 10.8289 2C13.9176 2 15.4894 4.0883 15.4894 6.625Z" stroke="#1C0248" stroke-width="1.5" stroke-linecap="round"/>
<path d="M10.8289 13.5625C3.78829 13.5625 1.50769 19.2241 1.50769 20.5H20.15C20.15 19.2241 17.8694 13.5625 10.8289 13.5625Z" stroke="#1C0248" stroke-width="1.5" stroke-linecap="round"/>
</svg>
