<svg width="22" height="22" viewBox="0 0 22 22" fill="none" xmlns="http://www.w3.org/2000/svg">
<path d="M7.66667 21H14.3333H7.66667ZM7.66667 21V15.4444V21ZM7.66667 21H1.66667C1.48986 21 1.32029 20.9298 1.19526 20.8047C1.07024 20.6797 1 20.5101 1 20.3333V16.1111C1 15.9343 1.07024 15.7647 1.19526 15.6397C1.32029 15.5147 1.48986 15.4444 1.66667 15.4444H7.66667M14.3333 21V14.3333V7.66667M14.3333 21H20.3333C20.5101 21 20.6797 20.9298 20.8047 20.8047C20.9298 20.6797 21 20.5101 21 20.3333V1.66667C21 1.48986 20.9298 1.32029 20.8047 1.19526C20.6797 1.07024 20.5101 1 20.3333 1H15C14.8232 1 14.6536 1.07024 14.5286 1.19526C14.4036 1.32029 14.3333 1.48986 14.3333 1.66667V7.66667M14.3333 7.66667H8.33333C8.15652 7.66667 7.98695 7.7369 7.86193 7.86193C7.7369 7.98695 7.66667 8.15652 7.66667 8.33333V15.4444" fill="#1C0248"/>
<path d="M7.66667 21H14.3333V14.3333V7.66667H8.33333C8.15652 7.66667 7.98695 7.7369 7.86193 7.86193C7.7369 7.98695 7.66667 8.15652 7.66667 8.33333V15.4444V21Z" fill="#1C0248"/>
<path d="M7.66667 21H14.3333M7.66667 21V15.4444M7.66667 21H1.66667C1.48986 21 1.32029 20.9298 1.19526 20.8047C1.07024 20.6797 1 20.5101 1 20.3333V16.1111C1 15.9343 1.07024 15.7647 1.19526 15.6397C1.32029 15.5147 1.48986 15.4444 1.66667 15.4444H7.66667M7.66667 21V8.33333M14.3333 21H20.3333C20.5101 21 20.6797 20.9298 20.8047 20.8047C20.9298 20.6797 21 20.5101 21 20.3333V1.66667C21 1.48986 20.9298 1.32029 20.8047 1.19526C20.6797 1.07024 20.5101 1 20.3333 1H15C14.8232 1 14.6536 1.07024 14.5286 1.19526C14.4036 1.32029 14.3333 1.48986 14.3333 1.66667V7.66667M14.3333 21V14.3333V7.66667M14.3333 21V7.66667M7.66667 15.4444V8.33333M14.3333 7.66667H8.33333C8.15652 7.66667 7.98695 7.7369 7.86193 7.86193C7.7369 7.98695 7.66667 8.15652 7.66667 8.33333" stroke="white" stroke-width="1.5"/>
</svg>
