<svg width="21" height="21" viewBox="0 0 21 21" fill="none" xmlns="http://www.w3.org/2000/svg">
<path d="M7.40008 20H13.4463M7.40008 20V15M7.40008 20H1.95847C1.79812 20 1.64433 19.9368 1.53094 19.8243C1.41755 19.7117 1.35385 19.5591 1.35385 19.4V15.6C1.35385 15.4409 1.41755 15.2883 1.53094 15.1757C1.64433 15.0632 1.79812 15 1.95847 15H7.40008M13.4463 20V8M13.4463 20H18.8879C19.0483 20 19.2021 19.9368 19.3155 19.8243C19.4288 19.7117 19.4925 19.5591 19.4925 19.4V2.6C19.4925 2.44087 19.4288 2.28826 19.3155 2.17574C19.2021 2.06321 19.0483 2 18.8879 2H14.0509C13.8906 2 13.7368 2.06321 13.6234 2.17574C13.51 2.28826 13.4463 2.44087 13.4463 2.6V8M7.40008 15V8.6C7.40008 8.44087 7.46378 8.28826 7.57717 8.17574C7.69056 8.06321 7.84435 8 8.00471 8H13.4463" stroke="black" stroke-opacity="0.5" stroke-width="1.5"/>
</svg>
