<svg width="28" height="27" viewBox="0 0 28 27" fill="none" xmlns="http://www.w3.org/2000/svg">
<path d="M25.734 11.9375L23.451 9.67344V4.125C23.451 3.26562 22.7424 2.5625 21.8764 2.5625H20.3019C19.4359 2.5625 18.7274 3.26562 18.7274 4.125V4.98906L15.5784 1.86719C15.1485 1.46406 14.7549 1 14.0038 1C13.2528 1 12.8592 1.46406 12.4293 1.86719L2.27367 11.9375C1.78242 12.4453 1.40768 12.8156 1.40768 13.5C1.40768 14.3797 2.08788 15.0625 2.9822 15.0625H4.55672V24.4375C4.55672 25.2969 5.26526 26 6.13124 26H9.28028C10.1499 26 10.8548 25.3004 10.8548 24.4375V18.1875C10.8548 17.3281 11.5633 16.625 12.4293 16.625H15.5784C16.4443 16.625 17.1529 17.3281 17.1529 18.1875V24.4375C17.1529 25.3004 17.0706 26 17.9401 26H21.8764C22.7424 26 23.451 25.2969 23.451 24.4375V15.0625H25.0255C25.9198 15.0625 26.6 14.3797 26.6 13.5C26.6 12.8156 26.2253 12.4453 25.734 11.9375Z" stroke="black" stroke-opacity="0.5" stroke-width="1.2" stroke-linejoin="round"/>
</svg>
