<svg width="27" height="27" viewBox="0 0 27 27" fill="none" xmlns="http://www.w3.org/2000/svg">
<path d="M24.7345 11.9375L22.4514 9.67344V4.125C22.4514 3.26562 21.7429 2.5625 20.8769 2.5625H19.3023C18.4363 2.5625 17.7278 3.26562 17.7278 4.125V4.98906L14.5787 1.86719C14.1489 1.46406 13.7552 1 13.0042 1C12.2531 1 11.8595 1.46406 11.4296 1.86719L1.27385 11.9375C0.782593 12.4453 0.407852 12.8156 0.407852 13.5C0.407852 14.3797 1.08805 15.0625 1.98239 15.0625H3.55693V24.4375C3.55693 25.2969 4.26547 26 5.13147 26H8.28055C9.15014 26 9.85509 25.3004 9.85509 24.4375V18.1875C9.85509 17.3281 10.5636 16.625 11.4296 16.625H14.5787C15.4447 16.625 16.1532 17.3281 16.1532 18.1875V24.4375C16.1532 25.3004 16.0709 26 16.9405 26H20.8769C21.7429 26 22.4514 25.2969 22.4514 24.4375V15.0625H24.0259C24.9203 15.0625 25.6005 14.3797 25.6005 13.5C25.6005 12.8156 25.2257 12.4453 24.7345 11.9375Z" fill="#1C0248"/>
</svg>
