<svg width="24" height="24" viewBox="0 0 24 24" fill="none" xmlns="http://www.w3.org/2000/svg">
<path d="M11.06 2.90991C7.75001 2.90991 5.06 5.59991 5.06 8.90991V11.7999C5.06 12.4099 4.8 13.3399 4.49 13.8599L3.34001 15.7699C2.63 16.9499 3.12 18.2599 4.42001 18.6999C8.73001 20.1399 13.38 20.1399 17.69 18.6999C18.9 18.2999 19.43 16.8699 18.77 15.7699L17.62 13.8599C17.32 13.3399 17.06 12.4099 17.06 11.7999V8.90991C17.06 5.60991 14.36 2.90991 11.06 2.90991Z" stroke="black" stroke-width="1.5" stroke-miterlimit="10" stroke-linecap="round"/>
<path d="M12.9101 3.19994C12.6001 3.10994 12.2801 3.03994 11.9501 2.99994C10.9901 2.87994 10.0701 2.94994 9.21008 3.19994C9.50008 2.45994 10.2201 1.93994 11.0601 1.93994C11.9001 1.93994 12.6201 2.45994 12.9101 3.19994Z" stroke="black" stroke-width="1.03528" stroke-miterlimit="10" stroke-linecap="round" stroke-linejoin="round"/>
<path d="M14.0601 19.0601C14.0601 20.7101 12.7101 22.0601 11.0601 22.0601C10.2401 22.0601 9.48006 21.7201 8.94006 21.1801C8.40006 20.6401 8.06006 19.8801 8.06006 19.0601" stroke="black" stroke-width="1.2" stroke-miterlimit="10"/>
<circle cx="17" cy="8" r="3.4" fill="#E2BFF3" stroke="black" stroke-width="1.2"/>
</svg>
