<svg width="24" height="21" viewBox="0 0 24 21" fill="none" xmlns="http://www.w3.org/2000/svg">
<path fill-rule="evenodd" clip-rule="evenodd" d="M7.66699 4.58333H3.33366C2.75902 4.58333 2.20792 4.81161 1.80159 5.21794C1.39527 5.62427 1.16699 6.17537 1.16699 6.75V17.5833C1.16699 18.158 1.39527 18.7091 1.80159 19.1154C2.20792 19.5217 2.75902 19.75 3.33366 19.75H20.667C21.2416 19.75 21.7927 19.5217 22.1991 19.1154C22.6054 18.7091 22.8337 18.158 22.8337 17.5833V6.75C22.8337 6.17537 22.6054 5.62427 22.1991 5.21794C21.7927 4.81161 21.2416 4.58333 20.667 4.58333H16.3337H7.66699Z" fill="#6F276C"/>
<path d="M7.66699 4.58333H3.33366C2.75902 4.58333 2.20792 4.81161 1.80159 5.21794C1.39527 5.62427 1.16699 6.17537 1.16699 6.75V17.5833C1.16699 18.158 1.39527 18.7091 1.80159 19.1154C2.20792 19.5217 2.75902 19.75 3.33366 19.75H20.667C21.2416 19.75 21.7927 19.5217 22.1991 19.1154C22.6054 18.7091 22.8337 18.158 22.8337 17.5833V6.75C22.8337 6.17537 22.6054 5.62427 22.1991 5.21794C21.7927 4.81161 21.2416 4.58333 20.667 4.58333H16.3337M7.66699 4.58333V1.9C7.66699 1.72761 7.73547 1.56228 7.85737 1.44038C7.97927 1.31848 8.1446 1.25 8.31699 1.25H15.6837C15.8561 1.25 16.0214 1.31848 16.1433 1.44038C16.2652 1.56228 16.3337 1.72761 16.3337 1.9V4.58333M7.66699 4.58333H16.3337" stroke="#6F276C" stroke-width="1.5"/>
</svg>
